{"title":"House 2 The Second Story (1987)","uid":5855902,"size":734388586,"categoryP":"video","categoryS":"movies","magnet":"?xt=urn:btih:62ce3d84930c87b303ae37dc94296d4eb28c26d1&amp;dn=House+2+The+Second+Story+%281987%29&amp;tr=udp%3A%2F%2Ftracker.openbittorrent.com%3A80&amp;tr=udp%3A%2F%2Fopen.demonii.com%3A1337&amp;tr=udp%3A%2F%2Ftracker.coppersurfer.tk%3A6969&amp;tr=udp%3A%2F%2Fexodus.desync.com%3A6969","seeders":4,"leechers":1,"uploader":"neon","files":-1,"time":1285613477,"description":"The new owner of a sinister house gets involved with reanimated corpses and demons searching for an ancient Aztec skull with magic powers\n &lt;a href=&quot;\nhttp://www.imdb.com/title/tt0093220/&quot; rel=&quot;nofollow&quot; target=&quot;_NEW&quot;&gt;\nhttp://www.imdb.com/title/tt0093220/&lt;/a&gt;\n\n\n\nVideo\nID : 0\nFormat : MPEG-4 Visual\nFormat profile : Advanced Simple@L5\nFormat settings, BVOP : Yes\nFormat settings, QPel : No\nFormat settings, GMC : No warppoints\nFormat settings, Matrix : Custom\nCodec ID : XVID\nCodec ID/Hint : XviD\nDuration : 1h 24mn\nBit rate : 1 028 Kbps\nWidth : 704 pixels\nHeight : 368 pixels\nDisplay aspect ratio : 1.913\nFrame rate : 25.000 fps\nColor space : YUV\nChroma subsampling : 4:2:0\nBit depth : 8 bits\nScan type : Progressive\nBits/(Pixel*Frame) : 0.159\nStream size : 619 MiB (88%)\nWriting library : XviD 1.2.1 (UTC 2008-12-04)\n\nAudio\nID : 1\nFormat : MPEG Audio\nFormat version : Version 1\nFormat profile : Layer 3\nMode : Joint stereo\nMode extension : MS Stereo\nCodec ID : 55\nCodec ID/Hint : MP3\nDuration : 1h 24mn\nBit rate mode : Variable\nBit rate : 121 Kbps\nNominal bit rate : 128 Kbps\nChannel(s) : 2 channels\nSampling rate : 48.0 KHz\nVideo delay : 216ms\nStream size : 73.1 MiB (10%)\nAlignment : Split accross interleaves\nInterleave, duration : 24 ms (0.60 video frame)\nInterleave, preload duration : 860 ms\nWriting library : LAME3.98r\nEncoding settings : -m j -V 4 -q 2 -lowpass 17 --abr 128\nLanguage : English\n","torrent":{"xt":"urn:btih:62ce3d84930c87b303ae37dc94296d4eb28c26d1","amp;dn":"House+2+The+Second+Story+%281987%29","amp;tr":["udp%3A%2F%2Ftracker.openbittorrent.com%3A80","udp%3A%2F%2Fopen.demonii.com%3A1337","udp%3A%2F%2Ftracker.coppersurfer.tk%3A6969","udp%3A%2F%2Fexodus.desync.com%3A6969"],"infoHash":"62ce3d84930c87b303ae37dc94296d4eb28c26d1","infoHashBuffer":{"type":"Buffer","data":[98,206,61,132,147,12,135,179,3,174,55,220,148,41,109,78,178,140,38,209]},"announce":[],"urlList":[]}}